<svg xmlns="http://www.w3.org/2000/svg" width="32" height="32" viewBox="0 0 32 32">
  <!-- Focilabda háttér -->
  <circle cx="16" cy="16" r="15" fill="white" stroke="#333" stroke-width="1"/>
  
  <!-- Fekete pentagonok -->
  <path d="M16 4 L19 8 L24 8 L20 12 L21 16 L16 14 L11 16 L12 12 L8 8 L13 8 Z" fill="#333"/>
  <path d="M16 28 L19 24 L24 24 L20 20 L21 16 L16 18 L11 16 L12 20 L8 24 L13 24 Z" fill="#333"/>
  <path d="M4 16 L8 13 L8 8 L12 11 L16 11 L16 4 L16 4 L16 11 L20 11 L24 8 L24 13 L28 16 L24 19 L24 24 L20 21 L16 21 L16 28 L16 28 L16 21 L12 21 L8 24 L8 19 Z" fill="#333"/>
  
  <!-- Fehér hatszögek -->
  <path d="M16 11 L12 11 L8 8 L13 8 L16 4 L19 8 L24 8 L20 11 Z" fill="white"/>
  <path d="M16 21 L12 21 L8 24 L13 24 L16 28 L19 24 L24 24 L20 21 Z" fill="white"/>
  <path d="M11 16 L12 12 L8 8 L8 13 L4 16 L8 19 L8 24 L12 20 Z" fill="white"/>
  <path d="M21 16 L20 12 L24 8 L24 13 L28 16 L24 19 L24 24 L20 20 Z" fill="white"/>
</svg>
